<?xml version="1.0" standalone="no"?>
<!DOCTYPE svg PUBLIC "-//W3C//DTD SVG 20010904//EN"
 "http://www.w3.org/TR/2001/REC-SVG-20010904/DTD/svg10.dtd">
<svg version="1.0" xmlns="http://www.w3.org/2000/svg"
 width="24.000000pt" height="24.000000pt" viewBox="0 0 24.000000 24.000000"
 preserveAspectRatio="xMidYMid meet">

<g transform="translate(0.000000,24.000000) scale(0.100000,-0.100000)"
fill="#000000" stroke="none">
<path d="M5 220 c3 -5 12 -10 19 -10 9 0 16 -20 20 -57 4 -31 12 -63 18 -70
11 -14 124 -18 145 -5 14 9 36 99 28 113 -4 5 -44 9 -90 9 -64 0 -84 3 -89 15
-3 8 -17 15 -31 15 -15 0 -24 -4 -20 -10z"/>
<path d="M64 45 c-4 -9 -2 -21 4 -27 15 -15 44 -1 40 19 -4 23 -36 29 -44 8z"/>
<path d="M162 48 c-15 -18 1 -41 24 -36 23 4 26 41 3 46 -9 1 -21 -3 -27 -10z"/>
</g>
</svg>
